<svg xmlns="http://www.w3.org/2000/svg" version="1.1" xmlns:xlink="http://www.w3.org/1999/xlink" xmlns:svgjs="http://svgjs.dev/svgjs" width="2000" height="1247" viewBox="0 0 2000 1247"><g transform="matrix(1,0,0,1,-1.2121212121212466,0.504858299595071)"><svg viewBox="0 0 396 247" data-background-color="#ffffff" preserveAspectRatio="xMidYMid meet" height="1247" width="2000" xmlns="http://www.w3.org/2000/svg" xmlns:xlink="http://www.w3.org/1999/xlink"><g id="tight-bounds" transform="matrix(1,0,0,1,0.2400000000000091,-0.09999999999999432)"><svg viewBox="0 0 395.52 247.2" height="247.2" width="395.52"><g><svg></svg></g><g><svg viewBox="0 0 395.52 247.2" height="247.2" width="395.52"><g transform="matrix(1,0,0,1,115.28987234042553,37.08)"><svg viewBox="0 0 164.94025531914892 173.04" height="173.04" width="164.94025531914892"><g><svg viewBox="0 0 164.94025531914892 173.04" height="173.04" width="164.94025531914892"><g><svg viewBox="0 0 164.94025531914892 173.04" height="173.04" width="164.94025531914892"><g><svg viewBox="0 0 164.94025531914892 173.04" height="173.04" width="164.94025531914892"><g id="textblocktransform"><svg viewBox="0 0 164.94025531914892 173.04" height="173.04" width="164.94025531914892" id="textblock"><g><svg viewBox="0 0 164.94025531914892 173.04" height="173.04" width="164.94025531914892"><g transform="matrix(1,0,0,1,0,0)"><svg width="164.94025531914892" viewBox="-0.78 -34.96 32.81 34.42" height="173.04" data-palette-color="#fbb04b"><path d="M22.51-34.96L32.03-2.1 19.92-0.54 18.46-6.05 12.89-6.05 11.67-0.54-0.78-1.76 8.94-34.28 22.51-34.96ZM13.92-13.53L17.58-13.53 15.72-22.02 13.92-13.53Z" opacity="1" transform="matrix(1,0,0,1,0,0)" fill="#fbb04b" class="wordmark-text-0" data-fill-palette-color="primary" id="text-0"></path></svg></g></svg></g></svg></g></svg></g><g></g></svg></g></svg></g></svg></g><g><path d="M0 247.2v-247.2h395.52v247.2zM379.915 231.595v-215.99h-364.31v215.99z" fill="#fbb04b" fill-rule="nonzero" stroke="none" stroke-width="1" stroke-linecap="butt" stroke-linejoin="miter" stroke-miterlimit="10" stroke-dasharray="" stroke-dashoffset="0" font-family="none" font-weight="none" font-size="none" text-anchor="none" style="mix-blend-mode: normal" data-fill-palette-color="tertiary"></path></g></svg></g><defs></defs></svg><rect width="395.52" height="247.2" fill="none" stroke="none" visibility="hidden"></rect></g></svg></g></svg>